<?xml version="1.0" standalone="no"?>
<!DOCTYPE svg PUBLIC "-//W3C//DTD SVG 20010904//EN"
 "http://www.w3.org/TR/2001/REC-SVG-20010904/DTD/svg10.dtd">
<svg version="1.0" xmlns="http://www.w3.org/2000/svg"
 width="512.000000pt" height="512.000000pt" viewBox="0 0 512.000000 512.000000"
 preserveAspectRatio="xMidYMid meet">

<g transform="translate(0.000000,512.000000) scale(0.100000,-0.100000)"
fill="#000000" stroke="none">
<path d="M2445 4550 c-33 -4 -84 -17 -114 -29 -121 -46 -174 -108 -221 -260
-730 -2375 -1030 -3368 -1030 -3412 0 -100 54 -172 173 -230 133 -64 282 -73
369 -22 71 41 81 66 194 461 l107 372 612 0 612 0 103 -357 c103 -360 122
-414 157 -445 119 -108 423 -68 564 73 49 49 69 93 69 151 0 51 -1049 3492
-1079 3541 -42 68 -114 116 -213 142 -68 18 -226 26 -303 15z m280 -115 c74
-20 118 -47 144 -88 22 -37 1071 -3464 1071 -3501 0 -13 -12 -39 -27 -56 -61
-73 -179 -120 -300 -120 -91 0 -136 21 -158 73 -7 17 -56 183 -109 367 -117
406 -121 416 -149 424 -12 3 -315 6 -673 6 -505 0 -654 -3 -667 -13 -11 -8
-56 -148 -127 -397 -60 -212 -114 -395 -119 -407 -18 -41 -65 -56 -160 -51
-73 3 -97 9 -154 38 -76 37 -117 85 -117 135 0 32 1040 3436 1064 3482 27 53
88 94 163 112 64 15 253 13 318 -4z"/>
<path d="M2306 4028 c-3 -7 -11 -35 -20 -62 -23 -72 -21 -98 6 -94 17 2 26 16
40 63 24 81 23 105 -2 105 -11 0 -22 -6 -24 -12z"/>
<path d="M2234 3779 c-14 -24 -61 -194 -57 -206 10 -26 41 -14 52 20 39 125
50 169 45 182 -7 18 -30 20 -40 4z"/>
<path d="M2488 3773 c-17 -20 -538 -1791 -538 -1828 0 -55 -2 -55 585 -55 473
0 543 2 563 16 12 8 22 25 22 37 0 15 -420 1401 -541 1785 -19 60 -60 80 -91
45z m282 -1018 c121 -396 223 -728 226 -737 5 -17 -21 -18 -460 -18 -256 0
-466 3 -466 7 0 6 378 1303 427 1463 l26 85 13 -40 c7 -22 113 -364 234 -760z"/>
<path d="M2131 3443 c-5 -10 -176 -578 -381 -1262 -251 -839 -368 -1247 -361
-1254 21 -21 40 5 65 85 28 93 686 2294 709 2374 11 38 12 55 4 63 -15 15 -25
14 -36 -6z"/>
</g>
</svg>
